<?xml version="1.0" encoding="UTF-8"?>
<svg viewBox="0 0 420 330.6441" xmlns="http://www.w3.org/2000/svg" xmlns:xlink="http://www.w3.org/1999/xlink">
 <defs>
  <filter id="w">
   <feGaussianBlur stdDeviation=".38062"/>
  </filter>
  <filter id="d">
   <feGaussianBlur stdDeviation=".98998"/>
  </filter>
  <linearGradient id="b">
   <stop stop-color="#fff" offset="0"/>
   <stop stop-color="#eaeaea" offset="1"/>
  </linearGradient>
  <linearGradient id="c">
   <stop stop-color="#fff" stop-opacity=".43429" offset="0"/>
   <stop stop-color="#fff" stop-opacity="0" offset="1"/>
  </linearGradient>
  <linearGradient id="a">
   <stop stop-color="#d1e3e2" stop-opacity=".5468" offset="0"/>
   <stop stop-color="#eee" stop-opacity=".61569" offset=".5"/>
   <stop stop-color="#d1e3e2" stop-opacity=".5451" offset="1"/>
  </linearGradient>
  <linearGradient id="v" x2="0" y1="741.94" y2="794.38" gradientUnits="userSpaceOnUse">
   <stop stop-opacity=".10345" offset="0"/>
   <stop stop-opacity="0" offset="1"/>
  </linearGradient>
  <linearGradient id="g" x1="177.14" x2="173.98" y1="368.32" y2="418.23" gradientUnits="userSpaceOnUse">
   <stop stop-color="#fff" offset="0"/>
   <stop stop-color="#fff" stop-opacity="0" offset="1"/>
  </linearGradient>
  <linearGradient id="f" x1="226.31" x2="274.1" y1="445.88" y2="364.18" gradientTransform="matrix(.98641 -.16429 .16429 .98641 -55.478 27.085)" gradientUnits="userSpaceOnUse">
   <stop stop-color="#bdbdbd" offset="0"/>
   <stop stop-color="#fff" offset="1"/>
  </linearGradient>
  <linearGradient id="u" x1="308.98" x2="117.83" y1="398.38" y2="574.55" gradientUnits="userSpaceOnUse" xlink:href="#a"/>
  <linearGradient id="t" x1="181.42" x2="371.47" y1="401.96" y2="226.81" gradientTransform="matrix(-.19996 -.16316 0 -1.0058 377.29 860.52)" gradientUnits="userSpaceOnUse" xlink:href="#a"/>
  <linearGradient id="s" x1="181.42" x2="371.47" y1="401.96" y2="226.81" gradientTransform="matrix(-.7401 1.0629 0 -1.0058 367.6 445)" gradientUnits="userSpaceOnUse" xlink:href="#a"/>
  <linearGradient id="r" x1="308.52" x2="79.949" y1="565.37" y2="605.63" gradientUnits="userSpaceOnUse" xlink:href="#a"/>
  <linearGradient id="q" x1="286.21" x2="95.058" y1="437.72" y2="613.89" gradientUnits="userSpaceOnUse" xlink:href="#a"/>
  <linearGradient id="p" x1="312.45" x2="83.884" y1="356.21" y2="396.47" gradientUnits="userSpaceOnUse" xlink:href="#a"/>
  <linearGradient id="o" x1="203.87" x2="176.87" y1="416.51" y2="626.6" gradientUnits="userSpaceOnUse" xlink:href="#c"/>
  <linearGradient id="n" x1="268.29" x2="326.93" y1="459.7" y2="550.47" gradientUnits="userSpaceOnUse" xlink:href="#c"/>
  <linearGradient id="m" x1="144.58" x2="195.17" y1="549.74" y2="616.35" gradientUnits="userSpaceOnUse" xlink:href="#c"/>
  <linearGradient id="l" x2="0" y1="388.88" y2="370.6" gradientUnits="userSpaceOnUse" xlink:href="#a"/>
  <linearGradient id="k" x1="137.75" x2="196.98" y1="581.31" y2="602.01" gradientUnits="userSpaceOnUse" xlink:href="#b"/>
  <linearGradient id="j" x1="338.53" x2="256.18" y1="580.41" y2="595.05" gradientUnits="userSpaceOnUse" xlink:href="#b"/>
  <linearGradient id="i" x1="244.27" x2="188.37" y1="566.53" y2="594.63" gradientUnits="userSpaceOnUse" xlink:href="#b"/>
  <linearGradient id="h" x1="185.75" x2="137.17" y1="575.27" y2="610.66" gradientUnits="userSpaceOnUse" xlink:href="#b"/>
  <radialGradient id="e" cx="271.99" cy="707.22" r="210" fx="272.03" fy="553.58" gradientTransform="matrix(.82942 -.0016834 .00025372 .12501 46.23 550.7)" gradientUnits="userSpaceOnUse">
   <stop stop-opacity=".48768" offset="0"/>
   <stop stop-opacity="0" offset="1"/>
  </radialGradient>
 </defs>
 <g transform="translate(-26 -24.134)">
  <g transform="translate(-36,-311)">
   <path d="m272 600c-115.92 0-210 20.77-210 36.778s94.08 29 210 29 210-12.992 210-29-94.08-36.778-210-36.778zm-89.125 5.25h168.78c2.8853 0.32302 7.5564 1.3305 10.188 3.9688l36.562 28.281c2.6797 2.6798 1.4317 7-2.8125 7h-240.88c-3.8929 1e-5 -6.4092-3.7472-5.1875-6.0312l25.188-29c2.2853-2.7314 4.1528-4.0322 8.1562-4.2188z" fill="url(#e)" fill-rule="evenodd"/>
   <g transform="translate(54.904 28.383)">
    <path transform="matrix(.732 0 0 .732 -10.181 59.089)" d="m169.09 708.78c-6.3276 0.31503-9.2942 2.544-12.906 7.1562l-39.844 48.938c-1.931 3.8568 2.097 10.219 8.25 10.219h380.72c6.7082 0 8.6417-7.3187 4.4062-11.844l-57.781-47.781c-4.1587-4.455-11.533-6.142-16.094-6.6875h-9.75c2.6416 0.84552 5.254 2.0927 7.125 3.9688l49.938 38.656c3.6608 3.6608 1.9856 9.5625-3.8125 9.5625h-329.06c-5.3182-1e-5 -8.794-5.1298-7.125-8.25l34.438-39.594c1.653-1.9757 3.1452-3.3949 5-4.3438h-13.5z" fill="url(#v)" filter="url(#d)"/>
    <path transform="matrix(.732 0 0 .732 -10.181 59.089)" d="m176.84 714c-1.5413 0.96455-2.8623 2.2667-4.3125 4l-35.719 41.062c-1.7311 3.2362 1.8591 8.5625 7.375 8.5625h341.31c6.0136 0 7.7657-6.1093 3.9688-9.9062l-4.6562-3.5938c1.0339 3.3061-0.96605 6.8438-5.4688 6.8438h-329.06c-5.3182-1e-5 -8.794-5.1298-7.125-8.25l33.688-38.719z" fill-opacity=".06857" filter="url(#d)"/>
    <path transform="matrix(.732 0 0 .732 -10.181 59.089)" d="m240.97 712.41-55.5 15.5 27.594 7.3125-18.938 14.406 42.312 7.375 13.656-11.938 14.906 3.9375 25.219-9.2188 40.875 7.5625 18.406-9.9375 9.6875 10.469 86.188-2.625-31.75-21.75-65.625 0.21875-68.875-9.3125-6.5 3.2188-31.656-5.2188z" fill-opacity=".23429" fill-rule="evenodd" filter="url(#w)"/>
    <path d="m347.39 604.27h-9.3532l8.7346-191.29h9.3532l-8.7346 191.29z" fill="#9ab7c1"/>
    <path d="m102.74 607.51h-9.3532v-194.91h9.3532v194.91z" fill="#9ab7c1"/>
    <path d="m124.76 580.33c-3.8716-0.13715-6.9441-0.76111-7.8913-5.9963l-23.188 28.41c-0.57008 9.0335 0.71056 11.899 6.177 11.047l24.903-33.461z" fill="#9ab7c1"/>
    <path d="m300.75 580.36c3.8097-0.13714 7.7655-3.5432 7.4518-8.0667l39.299 29.445c-0.66178 10.069-2.5914 13.257-5.7243 12.794l-41.027-34.173z" fill="#9ab7c1"/>
    <path d="m119.6 374.3c0.11438-1.859-2.9494-2.4069-4.3235-0.02681l-19.13 30.417c-1.484 2.4289-2.6724 3.5211-2.6724 8.3856l4.9644-4.3715 21.161-34.404z" fill="#9ab7c1"/>
    <path d="m310.23 374.63c-0.69086-1.7296 2.9164-2.3174 4.8982-1.0822l36.935 29.758c2.1701 1.8419 3.6408 4.2454 3.7918 9.2312l-5.5348-3.8777-40.091-34.029z" fill="#9ab7c1"/>
    <path d="m126.23 573.8h-9.3532v-199.18h9.3532v199.18z" fill="#9ab7c1"/>
    <path d="m308.31 573.66c0 2.843-3.7204 6.9742-8.6274 6.9742h-174.66c-4.7877 0-8.1002-1.5614-8.1002-6.9742h191.39z" fill="#9ab7c1"/>
    <path d="m308.42 573.8h-9.3532v-199.18h9.3532v199.18z" fill="#9ab7c1"/>
    <path d="m316.47 374.63c-2.6535-2.2541-9.8022-6.9742-14.709-6.9742h-176.67c-4.5132 0-7.4565 2.9868-10.041 6.9742h201.42z" fill="#9ab7c1"/>
    <path d="m294.39 575.89h-164.95c-3.4718 0-7.4669-4.4792-7.4669-7.6503v-191.92c0-1.6006 3.1328-5.3041 5.4178-5.3008l170.21 0.24252c2.9886 0 4.9427 3.2713 4.9427 5.3154v193.05c0 3.3246-2.8208 6.2134-8.1549 6.2636z" fill="url(#u)"/>
    <path d="m340.93 605.15-35.298-28.059c-1.7699-1.4069-1.1945-7.3776-1.1945-7.3776v-191.85c0-4.604 8.3264-6.2311 11.122-3.9724l37.106 29.983c2.2405 1.8104 3.473 6.0613 3.473 10.118l-8.5069 186.28c0 7.9186-3.2624 8.2523-6.7018 4.8751z" fill="url(#t)"/>
    <path d="m116.31 582.77-17.569 19.009c-3.1313 3.3878-5.1205 12.732-5.127 5.6735l-0.17793-194.23c-0.00127-1.3936 1.1389-6.1556 2.7018-8.6326l19.42-30.78c0.98208-1.5565 4.7171-1.5377 4.7171 2.5045v197.01c0 3.3246-2.5064 7.5656-3.9647 9.4444z" fill="url(#s)"/>
    <path d="m356.13 413.24c0-3.0844-1.28-7.1362-3.4969-9.3532h-255.95c-1.5984 2.1932-3.2758 5.8392-3.2758 9.3532h262.72z" fill="#9ab7c1"/>
    <path d="m346.16 607.43c0 5.5953-2.2037 8.7127-5.2812 8.7127h-240.63c-4.9848 0-6.8302-3.8425-6.8302-8.8421l252.74 0.1294z" fill="#9ab7c1"/>
    <path d="m127.98 576.87h168.78c2.8853 0.32302 7.5495 1.3147 10.181 3.9529l36.56 28.304c2.6797 2.6797 1.4414 7.0032-2.8028 7.0032h-240.88c-3.8929 0-6.4243-3.7642-5.2026-6.0482l25.198-28.98c2.2853-2.7314 4.1639-4.0454 8.1673-4.232z" fill="url(#r)"/>
    <path d="m340.97 611.75h-239.62c-3.4718 0-5.0879-1.0021-5.0879-4.1733v-193.93c0-1.6006 1.0283-3.29 3.3133-3.2878l251.38 0.24252c1.4358 0.00138 3.6617 0.5263 3.6617 2.5704l-8.4701 192.31c0 3.3246 0.15922 6.2135-5.1749 6.2636z" fill="url(#q)"/>
    <path d="m125.58 367.71c-4.3238 0-7.1621 2.3926-8.418 4.2319l-20.13 32.048c-1.1074 1.918-0.13317 3.294 1.647 3.294l250.02 0.36601c3.324-0.2591 4.8187-1.272 0.06862-4.8953l-36.211-29.715c-2.6311-2.6382-6.7418-5.3299-11.872-5.3299h-175.11zm57.037 19.83h73.761c3.0823 0 5.5586-0.27056 5.5586 1.3066s-2.4763 2.1895-5.5586 2.1895h-73.761c-3.0823 1e-5 -5.5586-0.61237-5.5586-2.1895s2.4763-1.3066 5.5586-1.3066z" fill="url(#p)"/>
    <path d="m340.97 611.75h-239.62c-3.4718 0-5.0879-1.0021-5.0879-4.1733v-112.22c83.373 10.183 168.83 12.043 254.08 14.689l-4.2034 95.439c0 3.3246 0.15922 6.2135-5.1749 6.2636z" fill="url(#o)"/>
    <path d="m340.97 611.75h-239.62c-3.4718 0-5.0879-1.0021-5.0879-4.1733v-69.763c58.342-10.533 126.56-32.403 182.74-48.894l68.635 68.654-1.4922 47.913c0 3.3246 0.15922 6.2135-5.1749 6.2636z" fill="url(#n)"/>
    <path d="m282.62 611.75h-181.26c-3.4718 0-5.0879-1.0021-5.0879-4.1733v-39.751l61.942-77.486 124.41 121.41z" fill="url(#m)"/>
    <path d="m181.28 387.36c-2.3942 0-4.3176 0.71589-4.3176 1.5965 0 0.20556 0.11056 0.39471 0.30206 0.57472 0.62881-0.59111 2.1803-1.009 4.0156-1.009h76.189c1.8334 0 3.3855 0.4188 4.0156 1.009 0.19271-0.1805 0.30206-0.36848 0.30206-0.57472 0-0.88056-1.9235-1.5965-4.3176-1.5965h-76.189z" fill="url(#l)" fill-rule="evenodd"/>
    <path d="m181.27522,387.10689c-1.2455,0-2.37146.18519-3.21601.4981s-1.50653.7856-1.45698,1.3538c.02385.27346.59857.36502.94171.42146-.1592-.14965-.23098-.2806-.23098-.42146 0-.30892.35035-.64162 1.06608-.90679s1.74752-.43424 2.89618-.43424h76.18916c1.14866,0 2.18047.16906 2.89619.43424s1.06608.59788 1.06608.90679c0,.14247-.07072.27134-.23099.42146-.51243.40131-.96838.63217-1.88714.91604 1.93967-.19959 2.82884-1.10262 2.82884-1.3375 0-.57048-.61242-1.04089-1.45697-1.3538s-1.9705-.4981-3.21601-.4981h-76.18916z" fill="#bbd1d4" fill-rule="evenodd"/>
    <path d="m177.22 389.23c-0.16916 0.17057-0.26652 0.35657-0.26652 0.54919 0 0.88054 1.9235 2.3601 4.3176 2.3601h76.189c2.3942 0 4.3176-1.4796 4.3176-2.3601 0-0.19373-0.0955-0.3778-0.26653-0.54919-0.61205 0.60354-2.1916 1.0345-4.0511 1.0345h-76.189c-1.8618 0-3.4407-0.42977-4.0511-1.0345z" fill="#e6f0f0" fill-rule="evenodd"/>
    <path d="m177.48 389.36c-0.35023-0.05691-0.44724-0.05517-0.87004-0.33333 0.27079 0.8687 2.5548 1.4892 4.6635 1.4892h76.189c1.2996 0 3.4381-0.51358 3.7846-1.1814-0.49022 0.48338-2.0002 0.67051-3.7846 0.67051h-76.189c-1.787 0-3.305-0.16101-3.7935-0.64498z" fill="#fff" fill-rule="evenodd"/>
    <path d="m166.22 578.78 62.601 10.318-44.953 16.017-58.274-14.99 40.626-11.346z" fill-opacity=".23429" fill-rule="evenodd"/>
    <path d="m166.22 578.01 62.601 10.318-45.018 16.47-58.209-15.442 40.626-11.346z" fill="url(#k)" fill-rule="evenodd"/>
    <path d="m292.6 586.86-56.181 0.183 16.337 17.675 63.085-1.9372-23.241-15.921z" fill-opacity=".23429" fill-rule="evenodd"/>
    <path d="m292.6 586.13-56.181 0.183 16.337 17.675 63.085-1.9372-23.241-15.921z" fill="url(#j)" fill-rule="evenodd"/>
    <path d="m232.14 603.8-30.825-4.8276 0.07022-0.62677-32.734-6.3505 24.715-11.747 66.588 8.405-13.878 7.9679-0.17635 0.74083-13.759 6.4381z" fill-opacity=".23429" fill-rule="evenodd"/>
    <path d="m232.18 603.57-63.078-11.668 25.035-12.433 66.176 8.954-28.133 15.147z" fill="url(#i)" fill-rule="evenodd"/>
    <path d="m163.69 581.8 32.038 0.31264-13.535 12.264 0.0036 0.35704-8.4288 7.4073-0.00147 0.54727-10.792 8.2142-31.07-5.3205 31.786-23.782z" fill-opacity=".23429" fill-rule="evenodd"/>
    <path d="m163.43 581.28 32.221 0.72438-32.754 28.652-30.979-5.412 31.512-23.965z" fill="url(#h)" fill-rule="evenodd"/>
    <path d="m146.15 407.35 82.881 0.08333 6.2859-6.3818-48.965-5.2426-40.202 11.541z" fill="url(#g)"/>
   </g>
   <g transform="translate(-2 17.121)">
    <path d="m236.06 324.18c18.241-1.3834 34.803-0.37331 54.73-4.17 3.2486 26.381 7.8428 42.619 13.299 64.657l-58.59 9.7582c-4.2711-23.231-6.5314-41.707-9.439-70.245z" fill="url(#f)" fill-rule="evenodd" stroke="#d80000" stroke-linejoin="round" stroke-opacity=".41143" stroke-width="4"/>
    <path d="m263.08 362.66c4.4137-0.33474 13.018-0.88583 17.839-1.8045 0.78606 3.4667 1.5442 7.4842 2.8643 12.817l-18.773 3.1567c-1.0335-5.6211-1.1385-8.5892-1.9304-14.169z" fill="none" stroke="#2b2b2b" stroke-linejoin="round"/>
    <path d="m260.09 340.5c4.0745 0.11791 12.017 0.44106 16.468 0.06144 0.58963 3.4802 1.4255 7.0301 2.6442 12.06l-17.331 1.0917c-0.95405-5.2679-1.051-8.007-1.782-13.213z" fill="none" stroke="#2b2b2b" stroke-linejoin="round"/>
    <path d="m259.79 358.25-4.4375 2.8125c4.334 2.9889 9.0162 5.4358 13.688 7.8438l1.3438 0.65625c-1.5926 1.3649-3.1293 2.7737-4.5938 4.2812-2.393 2.4111-4.6605 4.9025-6.1875 7.9688l4.7812-2.1562c1.3165-3.0038 3.5311-5.3592 5.8125-7.6562 0.56617-0.5882 1.1278-1.158 1.7188-1.7188 4.4347 2.1049 8.9202 4.0904 13.344 6.2188l4-2.6562c-4.7766-2.045-9.5828-4.0257-14.25-6.3125 2.7594-2.3342 5.6678-4.5099 8.5-6.75 1.9119-1.5548 1.011-0.81439 2.6562-2.25l-4.625 1.9062c-1.549 1.3737-0.72299 0.65481-2.5312 2.1562-1.782 1.4318-3.5907 2.8157-5.375 4.25-0.27769-0.14079-0.56724-0.26289-0.84375-0.40625-4.517-2.4154-9.0642-4.8741-13-8.1875z" fill="#d00" fill-rule="evenodd"/>
   </g>
  </g>
 </g>
</svg>
